<?xml version="1.0" encoding="UTF-8"?>
<svg xmlns="http://www.w3.org/2000/svg" xmlns:xlink="http://www.w3.org/1999/xlink" width="13pt" height="13pt" viewBox="0 0 13 13" version="1.1">
<g id="surface1">
<path style=" fill:#516278;" d="M 7.71875 10.5625 C 7.609375 10.5625 7.507812 10.519531 7.429688 10.445312 C 7.351562 10.367188 7.308594 10.265625 7.308594 10.15625 C 7.308594 10.046875 7.351562 9.945312 7.429688 9.867188 L 10.800781 6.5 L 7.429688 3.132812 C 7.269531 2.972656 7.269531 2.714844 7.429688 2.554688 C 7.589844 2.394531 7.847656 2.394531 8.007812 2.554688 L 11.664062 6.210938 C 11.742188 6.289062 11.785156 6.390625 11.785156 6.5 C 11.785156 6.609375 11.742188 6.710938 11.664062 6.789062 L 8.007812 10.445312 C 7.929688 10.519531 7.828125 10.5625 7.71875 10.5625 Z M 7.71875 10.5625 "/>
<path style=" stroke:none;fill-rule:nonzero;fill:rgb(0%,0%,0%);fill-opacity:1;" d="M 11.375 6.90625 L 1.625 6.90625 C 1.402344 6.90625 1.21875 6.722656 1.21875 6.5 C 1.21875 6.277344 1.402344 6.09375 1.625 6.09375 L 11.375 6.09375 C 11.597656 6.09375 11.78125 6.277344 11.78125 6.5 C 11.78125 6.722656 11.597656 6.90625 11.375 6.90625 Z M 11.375 6.90625 "/>
</g>
</svg>
