<?xml version="1.0" encoding="UTF-8"?>
<svg xmlns="http://www.w3.org/2000/svg" xmlns:xlink="http://www.w3.org/1999/xlink" width="9pt" height="10pt" viewBox="0 0 9 10" version="1.1">
<g id="surface1">
<path style=" stroke:none;fill-rule:nonzero;fill:rgb(0%,0%,0%);fill-opacity:1;" d="M 7.039062 4.375 C 7.863281 4.605469 9 5.378906 9 7.917969 C 9 9.066406 8.101562 10 7.003906 10 L 1.996094 10 C 0.894531 10 0 9.066406 0 7.917969 C 0 5.378906 1.136719 4.605469 1.960938 4.375 C 1.667969 3.933594 1.5 3.414062 1.5 2.855469 C 1.5 1.285156 2.847656 0 4.5 0 C 6.152344 0 7.5 1.285156 7.5 2.855469 C 7.5 3.414062 7.332031 3.933594 7.039062 4.375 Z M 4.5 0.714844 C 3.257812 0.714844 2.25 1.675781 2.25 2.855469 C 2.25 4.039062 3.257812 5 4.5 5 C 5.742188 5 6.75 4.039062 6.75 2.855469 C 6.75 1.675781 5.742188 0.714844 4.5 0.714844 Z M 7.003906 9.285156 C 7.6875 9.285156 8.25 8.675781 8.25 7.917969 C 8.25 6.160156 7.628906 5.0625 6.46875 5.003906 C 5.941406 5.445312 5.257812 5.714844 4.5 5.714844 C 3.742188 5.714844 3.058594 5.445312 2.53125 5.003906 C 1.371094 5.0625 0.75 6.160156 0.75 7.917969 C 0.75 8.675781 1.3125 9.285156 1.996094 9.285156 Z M 7.003906 9.285156 "/>
</g>
</svg>
