<?xml version="1.0" encoding="UTF-8"?>
<svg xmlns="http://www.w3.org/2000/svg" xmlns:xlink="http://www.w3.org/1999/xlink" width="9pt" height="9pt" viewBox="0 0 9 9" version="1.1">
<g id="surface1">
<path style=" stroke:none;fill-rule:nonzero;fill:rgb(0%,0%,0%);fill-opacity:1;" d="M 0.691406 8.355469 L 2.25 8.355469 L 2.25 6.910156 L 0.691406 6.910156 Z M 2.597656 8.355469 L 4.328125 8.355469 L 4.328125 6.910156 L 2.597656 6.910156 Z M 0.691406 6.589844 L 2.25 6.589844 L 2.25 4.980469 L 0.691406 4.980469 Z M 2.597656 6.589844 L 4.328125 6.589844 L 4.328125 4.980469 L 2.597656 4.980469 Z M 0.691406 4.660156 L 2.25 4.660156 L 2.25 3.214844 L 0.691406 3.214844 Z M 4.671875 8.355469 L 6.402344 8.355469 L 6.402344 6.910156 L 4.671875 6.910156 Z M 2.597656 4.660156 L 4.328125 4.660156 L 4.328125 3.214844 L 2.597656 3.214844 Z M 6.75 8.355469 L 8.308594 8.355469 L 8.308594 6.910156 L 6.75 6.910156 Z M 4.671875 6.589844 L 6.402344 6.589844 L 6.402344 4.980469 L 4.671875 4.980469 Z M 2.769531 2.25 L 2.769531 0.804688 C 2.769531 0.71875 2.6875 0.644531 2.597656 0.644531 L 2.25 0.644531 C 2.15625 0.644531 2.078125 0.71875 2.078125 0.804688 L 2.078125 2.25 C 2.078125 2.335938 2.15625 2.410156 2.25 2.410156 L 2.597656 2.410156 C 2.6875 2.410156 2.769531 2.335938 2.769531 2.25 Z M 6.75 6.589844 L 8.308594 6.589844 L 8.308594 4.980469 L 6.75 4.980469 Z M 4.671875 4.660156 L 6.402344 4.660156 L 6.402344 3.214844 L 4.671875 3.214844 Z M 6.75 4.660156 L 8.308594 4.660156 L 8.308594 3.214844 L 6.75 3.214844 Z M 6.921875 2.25 L 6.921875 0.804688 C 6.921875 0.71875 6.84375 0.644531 6.75 0.644531 L 6.402344 0.644531 C 6.3125 0.644531 6.230469 0.71875 6.230469 0.804688 L 6.230469 2.25 C 6.230469 2.335938 6.3125 2.410156 6.402344 2.410156 L 6.75 2.410156 C 6.84375 2.410156 6.921875 2.335938 6.921875 2.25 Z M 9 1.929688 L 9 8.355469 C 9 8.707031 8.6875 9 8.308594 9 L 0.691406 9 C 0.3125 9 0 8.707031 0 8.355469 L 0 1.929688 C 0 1.578125 0.3125 1.285156 0.691406 1.285156 L 1.382812 1.285156 L 1.382812 0.804688 C 1.382812 0.363281 1.773438 0 2.25 0 L 2.597656 0 C 3.070312 0 3.460938 0.363281 3.460938 0.804688 L 3.460938 1.285156 L 5.539062 1.285156 L 5.539062 0.804688 C 5.539062 0.363281 5.929688 0 6.402344 0 L 6.75 0 C 7.226562 0 7.617188 0.363281 7.617188 0.804688 L 7.617188 1.285156 L 8.308594 1.285156 C 8.6875 1.285156 9 1.578125 9 1.929688 Z M 9 1.929688 "/>
</g>
</svg>
