<?xml version="1.0" encoding="UTF-8"?>
<svg xmlns="http://www.w3.org/2000/svg" xmlns:xlink="http://www.w3.org/1999/xlink" width="8pt" height="8pt" viewBox="0 0 8 8" version="1.1">
<g id="surface1">
<path style=" stroke:none;fill-rule:nonzero;fill:rgb(60.392157%,60.392157%,60.392157%);fill-opacity:1;" d="M 2.59375 4.5 L 1.894531 4.5 C 1.777344 4.5 1.683594 4.417969 1.683594 4.3125 L 1.683594 3.6875 C 1.683594 3.582031 1.777344 3.5 1.894531 3.5 L 2.59375 3.5 C 2.710938 3.5 2.808594 3.582031 2.808594 3.6875 L 2.808594 4.3125 C 2.808594 4.417969 2.710938 4.5 2.59375 4.5 Z M 4.488281 4.3125 L 4.488281 3.6875 C 4.488281 3.582031 4.394531 3.5 4.28125 3.5 L 3.578125 3.5 C 3.460938 3.5 3.367188 3.582031 3.367188 3.6875 L 3.367188 4.3125 C 3.367188 4.417969 3.460938 4.5 3.578125 4.5 L 4.28125 4.5 C 4.394531 4.5 4.488281 4.417969 4.488281 4.3125 Z M 6.175781 4.3125 L 6.175781 3.6875 C 6.175781 3.582031 6.078125 3.5 5.960938 3.5 L 5.261719 3.5 C 5.144531 3.5 5.050781 3.582031 5.050781 3.6875 L 5.050781 4.3125 C 5.050781 4.417969 5.144531 4.5 5.261719 4.5 L 5.960938 4.5 C 6.078125 4.5 6.175781 4.417969 6.175781 4.3125 Z M 4.488281 5.8125 L 4.488281 5.1875 C 4.488281 5.082031 4.394531 5 4.28125 5 L 3.578125 5 C 3.460938 5 3.367188 5.082031 3.367188 5.1875 L 3.367188 5.8125 C 3.367188 5.917969 3.460938 6 3.578125 6 L 4.28125 6 C 4.394531 6 4.488281 5.917969 4.488281 5.8125 Z M 2.808594 5.8125 L 2.808594 5.1875 C 2.808594 5.082031 2.710938 5 2.59375 5 L 1.894531 5 C 1.777344 5 1.683594 5.082031 1.683594 5.1875 L 1.683594 5.8125 C 1.683594 5.917969 1.777344 6 1.894531 6 L 2.59375 6 C 2.710938 6 2.808594 5.917969 2.808594 5.8125 Z M 6.175781 5.8125 L 6.175781 5.1875 C 6.175781 5.082031 6.078125 5 5.960938 5 L 5.261719 5 C 5.144531 5 5.050781 5.082031 5.050781 5.1875 L 5.050781 5.8125 C 5.050781 5.917969 5.144531 6 5.261719 6 L 5.960938 6 C 6.078125 6 6.175781 5.917969 6.175781 5.8125 Z M 7.855469 1.75 L 7.855469 7.25 C 7.855469 7.664062 7.480469 8 7.015625 8 L 0.84375 8 C 0.375 8 0 7.664062 0 7.25 L 0 1.75 C 0 1.335938 0.375 1 0.84375 1 L 1.683594 1 L 1.683594 0.1875 C 1.683594 0.0820312 1.777344 0 1.894531 0 L 2.59375 0 C 2.710938 0 2.808594 0.0820312 2.808594 0.1875 L 2.808594 1 L 5.050781 1 L 5.050781 0.1875 C 5.050781 0.0820312 5.144531 0 5.261719 0 L 5.960938 0 C 6.078125 0 6.175781 0.0820312 6.175781 0.1875 L 6.175781 1 L 7.015625 1 C 7.480469 1 7.855469 1.335938 7.855469 1.75 Z M 7.015625 7.15625 L 7.015625 2.5 L 0.84375 2.5 L 0.84375 7.15625 C 0.84375 7.207031 0.890625 7.25 0.945312 7.25 L 6.910156 7.25 C 6.96875 7.25 7.015625 7.207031 7.015625 7.15625 Z M 7.015625 7.15625 "/>
</g>
</svg>
