<?xml version="1.0" encoding="UTF-8"?>
<svg xmlns="http://www.w3.org/2000/svg" xmlns:xlink="http://www.w3.org/1999/xlink" width="17pt" height="17pt" viewBox="0 0 17 17" version="1.1">
<g id="surface1">
<path style=" stroke:none;fill-rule:nonzero;fill:rgb(100%,100%,100%);fill-opacity:1;" d="M 2.707031 12.453125 L 0.542969 12.453125 C 0.242188 12.453125 0 12.695312 0 12.996094 L 0 15.160156 C 0 15.460938 0.242188 15.703125 0.542969 15.703125 L 2.707031 15.703125 C 3.007812 15.703125 3.25 15.460938 3.25 15.160156 L 3.25 12.996094 C 3.25 12.695312 3.007812 12.453125 2.707031 12.453125 Z M 2.707031 1.625 L 0.542969 1.625 C 0.242188 1.625 0 1.867188 0 2.164062 L 0 4.332031 C 0 4.632812 0.242188 4.875 0.542969 4.875 L 2.707031 4.875 C 3.007812 4.875 3.25 4.632812 3.25 4.332031 L 3.25 2.164062 C 3.25 1.867188 3.007812 1.625 2.707031 1.625 Z M 2.707031 7.039062 L 0.542969 7.039062 C 0.242188 7.039062 0 7.28125 0 7.582031 L 0 9.746094 C 0 10.046875 0.242188 10.289062 0.542969 10.289062 L 2.707031 10.289062 C 3.007812 10.289062 3.25 10.046875 3.25 9.746094 L 3.25 7.582031 C 3.25 7.28125 3.007812 7.039062 2.707031 7.039062 Z M 16.785156 12.996094 L 5.957031 12.996094 C 5.65625 12.996094 5.414062 13.238281 5.414062 13.535156 L 5.414062 14.621094 C 5.414062 14.921875 5.65625 15.160156 5.957031 15.160156 L 16.785156 15.160156 C 17.085938 15.160156 17.328125 14.921875 17.328125 14.621094 L 17.328125 13.535156 C 17.328125 13.238281 17.085938 12.996094 16.785156 12.996094 Z M 16.785156 2.164062 L 5.957031 2.164062 C 5.65625 2.164062 5.414062 2.40625 5.414062 2.707031 L 5.414062 3.789062 C 5.414062 4.089844 5.65625 4.332031 5.957031 4.332031 L 16.785156 4.332031 C 17.085938 4.332031 17.328125 4.089844 17.328125 3.789062 L 17.328125 2.707031 C 17.328125 2.40625 17.085938 2.164062 16.785156 2.164062 Z M 16.785156 7.582031 L 5.957031 7.582031 C 5.65625 7.582031 5.414062 7.820312 5.414062 8.121094 L 5.414062 9.203125 C 5.414062 9.503906 5.65625 9.746094 5.957031 9.746094 L 16.785156 9.746094 C 17.085938 9.746094 17.328125 9.503906 17.328125 9.203125 L 17.328125 8.121094 C 17.328125 7.820312 17.085938 7.582031 16.785156 7.582031 Z M 16.785156 7.582031 "/>
</g>
</svg>
